<svg width="27" height="47" viewBox="0 0 27 47" fill="none" xmlns="http://www.w3.org/2000/svg">
<path d="M0.857403 26.321C0.309084 25.7704 0.000682228 25.0235 0 24.2444V22.7556C0.00897937 21.9782 0.316132 21.2343 0.857403 20.679L20.8894 0.579475C21.2553 0.208608 21.7534 0 22.273 0C22.7926 0 23.2906 0.208608 23.6565 0.579475L26.4236 3.36128C26.7902 3.72238 26.9968 4.21663 26.9968 4.7326C26.9968 5.24856 26.7902 5.74281 26.4236 6.10391L9.08067 23.5L26.4236 40.8961C26.7925 41.2639 27 41.7646 27 42.287C27 42.8093 26.7925 43.3101 26.4236 43.6779L23.6565 46.4205C23.2906 46.7914 22.7926 47 22.273 47C21.7534 47 21.2553 46.7914 20.8894 46.4205L0.857403 26.321Z" fill="#3E4CA2"/>
</svg>
