<svg width="30" height="30" viewBox="0 0 30 30" fill="none" xmlns="http://www.w3.org/2000/svg">
<path d="M8.0598 9.96177C8.45273 6.4254 11.4419 3.75 15 3.75V3.75C18.5581 3.75 21.5473 6.4254 21.9402 9.96177L22.2549 12.7945C22.3069 13.2623 22.3329 13.4962 22.3721 13.7258C22.5128 14.5511 22.7822 15.3493 23.1705 16.0911C23.2785 16.2975 23.3995 16.4992 23.6417 16.9028L24.4326 18.221C25.2384 19.5639 25.6412 20.2354 25.354 20.7427C25.0668 21.25 24.2837 21.25 22.7176 21.25H7.28238C5.71627 21.25 4.93322 21.25 4.64599 20.7427C4.35876 20.2354 4.76164 19.5639 5.5674 18.221L6.35832 16.9028C6.60046 16.4992 6.72153 16.2975 6.82954 16.0911C7.21781 15.3493 7.48722 14.5511 7.62794 13.7258C7.66709 13.4962 7.69308 13.2623 7.74505 12.7945L8.0598 9.96177Z" stroke="#808080" stroke-width="2"/>
<path d="M11.3778 22.0809C11.5914 23.2769 12.0622 24.3338 12.7171 25.0876C13.3721 25.8414 14.1745 26.25 15 26.25C15.8255 26.25 16.6279 25.8414 17.2829 25.0876C17.9378 24.3338 18.4086 23.2769 18.6222 22.0809" stroke="#808080" stroke-width="2" stroke-linecap="round"/>
</svg>
