<svg width="30" height="30" viewBox="0 0 30 30" fill="none" xmlns="http://www.w3.org/2000/svg">
<path fill-rule="evenodd" clip-rule="evenodd" d="M18.61 3.61183C17.5222 3.05954 16.294 2.75 15 2.75C10.9323 2.75 7.51511 5.80853 7.06591 9.85134L6.75116 12.6841C6.69796 13.1629 6.6753 13.3634 6.64216 13.5577C6.51903 14.2799 6.28329 14.9783 5.94356 15.6274C5.85213 15.802 5.74866 15.9752 5.50082 16.3883L4.70989 17.7065L4.67239 17.769C4.30178 18.3865 3.96733 18.9438 3.7731 19.4121C3.56959 19.9028 3.40084 20.5732 3.77578 21.2354C4.15072 21.8976 4.81235 22.0978 5.33784 22.1758C5.83936 22.2502 6.48928 22.2501 7.20947 22.25H7.20949L7.28237 22.25H22.7176L22.7905 22.25H22.7905C23.5107 22.2501 24.1606 22.2502 24.6621 22.1758C25.1876 22.0978 25.8493 21.8976 26.2242 21.2354C26.5991 20.5732 26.4304 19.9028 26.2269 19.4121C26.0327 18.9438 25.6982 18.3865 25.3276 17.769L25.2901 17.7065L24.4992 16.3883C24.2513 15.9752 24.1479 15.802 24.0564 15.6274C23.7167 14.9783 23.481 14.2799 23.3578 13.5577C23.3315 13.4031 23.3117 13.2447 23.278 12.9454C23.0238 12.9814 22.7641 13 22.5 13C22.0721 13 21.6557 12.9511 21.2559 12.8587L21.2611 12.905L21.2646 12.9372V12.9372C21.3132 13.3744 21.3422 13.6353 21.3863 13.8939C21.5446 14.8224 21.8477 15.7203 22.2845 16.5548C22.4061 16.7872 22.5411 17.0122 22.7674 17.3893L22.7674 17.3894L22.7842 17.4173L23.5751 18.7355C23.9954 19.436 24.2491 19.8641 24.3795 20.1783L24.3862 20.1947L24.3686 20.1974C24.0322 20.2473 23.5345 20.25 22.7176 20.25H7.28237C6.46548 20.25 5.96783 20.2473 5.63135 20.1974L5.61378 20.1947L5.62053 20.1783C5.75084 19.8641 6.00459 19.436 6.42488 18.7355L7.2158 17.4173L7.23252 17.3894C7.45883 17.0123 7.59387 16.7872 7.71551 16.5548C8.15231 15.7203 8.4554 14.8224 8.61371 13.8939C8.65779 13.6353 8.68677 13.3745 8.73533 12.9373L8.73533 12.9373L8.73892 12.905L9.05368 10.0722C9.39034 7.04226 11.9514 4.75 15 4.75C15.876 4.75 16.7117 4.93927 17.466 5.28092C17.7425 4.65454 18.1326 4.08949 18.61 3.61183ZM21.0174 5.48683C20.4136 5.93228 20.0173 6.64293 20.0005 7.44687C20.3772 8.01924 20.6589 8.66176 20.8221 9.35333C21.2657 9.7552 21.8543 10 22.5 10C22.6523 10 22.8014 9.98638 22.9462 9.9603L22.9341 9.85134C22.7483 8.1792 22.0547 6.67544 21.0174 5.48683ZM24.4459 20.3803C24.4461 20.3849 24.4464 20.3875 24.4466 20.3876C24.4466 20.3876 24.4467 20.3872 24.4466 20.3863C24.4466 20.3852 24.4463 20.3832 24.4459 20.3803ZM24.576 20.1505C24.5801 20.1482 24.5825 20.1472 24.5826 20.1473C24.5828 20.1474 24.5808 20.1485 24.576 20.1505ZM5.41734 20.1473C5.41752 20.1472 5.41989 20.1482 5.42394 20.1505C5.41919 20.1485 5.41716 20.1474 5.41734 20.1473ZM5.55406 20.3803C5.55394 20.3849 5.55356 20.3875 5.5534 20.3876C5.55324 20.3877 5.55331 20.3854 5.55406 20.3803Z" fill="#808080"/>
<path d="M11.3778 22.0809C11.5914 23.2769 12.0622 24.3338 12.7171 25.0876C13.3721 25.8414 14.1745 26.25 15 26.25C15.8255 26.25 16.6279 25.8414 17.2829 25.0876C17.9378 24.3338 18.4086 23.2769 18.6222 22.0809" stroke="#808080" stroke-width="2" stroke-linecap="round"/>
<circle cx="22.5" cy="7.5" r="3" fill="#EF4444" stroke="#EF4444"/>
</svg>
