<svg width="18" height="19" viewBox="0 0 18 19" fill="none" xmlns="http://www.w3.org/2000/svg">
<path d="M4.35 11.2C3.90817 10.8686 3.28137 10.9582 2.95 11.4C2.61863 11.8418 2.70817 12.4686 3.15 12.8L4.35 11.2ZM14.274 6.63324C14.6237 6.20579 14.5607 5.57577 14.1332 5.22604C13.7058 4.87632 13.0758 4.93932 12.726 5.36676L14.274 6.63324ZM5.98309 13.6748L5.38309 14.4748L5.98309 13.6748ZM3.15 12.8L5.38309 14.4748L6.58309 12.8748L4.35 11.2L3.15 12.8ZM8.131 14.1413L14.274 6.63324L12.726 5.36676L6.58309 12.8748L8.131 14.1413ZM5.38309 14.4748C6.24047 15.1179 7.45234 14.9708 8.131 14.1413L6.58309 12.8748L5.38309 14.4748Z" fill="#3E4CA2"/>
</svg>
