<svg width="16" height="16" viewBox="0 0 16 16" fill="none" xmlns="http://www.w3.org/2000/svg">
<path d="M9.33333 3.5V3.5C9.33333 3.03534 9.33333 2.80302 9.2949 2.60982C9.13709 1.81644 8.51689 1.19624 7.72351 1.03843C7.53032 1 7.29799 1 6.83333 1H5C3.11438 1 2.17157 1 1.58579 1.58579C1 2.17157 1 3.11438 1 5V6.83333C1 7.29799 1 7.53032 1.03843 7.72351C1.19624 8.51689 1.81644 9.13709 2.60982 9.2949C2.80302 9.33333 3.03534 9.33333 3.5 9.33333V9.33333" stroke="#808080" stroke-width="2"/>
<rect x="6" y="6" width="8.33333" height="8.33333" rx="2" stroke="#808080" stroke-width="2"/>
</svg>
