<svg width="87" height="62" viewBox="0 0 87 62" fill="none" xmlns="http://www.w3.org/2000/svg">
<path d="M16.2026 28.6035C17.1678 28.0488 18.6782 27.9984 19.7425 28.4522L20.0474 28.6035L43.5 42.0813L66.9526 28.6035C67.9178 28.0488 69.4282 27.9984 70.4925 28.4522L70.7974 28.6035C71.7627 29.1582 71.8504 30.0263 71.0607 30.638L70.7974 30.8132L45.4224 45.3966C44.4572 45.9513 42.9468 46.0017 41.8825 45.5479L41.5776 45.3966L16.2026 30.8132C15.1408 30.203 15.1408 29.2137 16.2026 28.6035Z" fill="#3E4CA2"/>
<path d="M16.2026 16.6035C17.1678 16.0488 18.6782 15.9984 19.7425 16.4522L20.0474 16.6035L43.5 30.0813L66.9526 16.6035C67.9178 16.0488 69.4282 15.9984 70.4925 16.4522L70.7974 16.6035C71.7627 17.1582 71.8504 18.0263 71.0607 18.638L70.7974 18.8132L45.4224 33.3966C44.4572 33.9513 42.9468 34.0017 41.8825 33.5479L41.5776 33.3966L16.2026 18.8132C15.1408 18.203 15.1408 17.2137 16.2026 16.6035Z" fill="#3E4CA2"/>
</svg>
