<svg width="13" height="12" viewBox="0 0 13 12" fill="none" xmlns="http://www.w3.org/2000/svg">
<path d="M0.22 6.7179C0.0793075 6.57738 0.000175052 6.38674 0 6.1879V5.8079C0.00230401 5.60948 0.081116 5.41962 0.22 5.2779L5.36 0.147899C5.45388 0.0532428 5.58168 0 5.715 0C5.84832 0 5.97612 0.0532428 6.07 0.147899L6.78 0.857899C6.87406 0.950063 6.92707 1.07621 6.92707 1.2079C6.92707 1.33959 6.87406 1.46574 6.78 1.5579L2.33 5.9979L6.78 10.4379C6.87466 10.5318 6.9279 10.6596 6.9279 10.7929C6.9279 10.9262 6.87466 11.054 6.78 11.1479L6.07 11.8479C5.97612 11.9426 5.84832 11.9958 5.715 11.9958C5.58168 11.9958 5.45388 11.9426 5.36 11.8479L0.22 6.7179Z" fill="#3E4CA2"/>
<path d="M6.22 6.7179C6.07931 6.57738 6.00018 6.38674 6 6.1879V5.8079C6.0023 5.60948 6.08112 5.41962 6.22 5.2779L11.36 0.147899C11.4539 0.0532428 11.5817 0 11.715 0C11.8483 0 11.9761 0.0532428 12.07 0.147899L12.78 0.857899C12.8741 0.950063 12.9271 1.07621 12.9271 1.2079C12.9271 1.33959 12.8741 1.46574 12.78 1.5579L8.33 5.9979L12.78 10.4379C12.8747 10.5318 12.9279 10.6596 12.9279 10.7929C12.9279 10.9262 12.8747 11.054 12.78 11.1479L12.07 11.8479C11.9761 11.9426 11.8483 11.9958 11.715 11.9958C11.5817 11.9958 11.4539 11.9426 11.36 11.8479L6.22 6.7179Z" fill="#3E4CA2"/>
</svg>
