<svg width="18" height="18" viewBox="0 0 18 18" fill="none" xmlns="http://www.w3.org/2000/svg">
<path d="M7.30725 4.21986C7.94932 2.61918 8.27036 1.81883 8.79193 1.70791C8.92908 1.67874 9.07083 1.67874 9.20797 1.70791C9.72955 1.81883 10.0506 2.61918 10.6927 4.21986C11.0578 5.13014 11.2404 5.58528 11.582 5.89485C11.6778 5.98168 11.7818 6.05901 11.8926 6.12576C12.2874 6.36374 12.7803 6.40788 13.7661 6.49617C15.4348 6.64562 16.2692 6.72034 16.524 7.19609C16.5768 7.29462 16.6127 7.4013 16.6302 7.51169C16.7146 8.04472 16.1012 8.60278 14.8744 9.7189L14.5338 10.0288C13.9602 10.5506 13.6735 10.8115 13.5076 11.1372C13.4081 11.3325 13.3414 11.5428 13.3101 11.7598C13.258 12.1215 13.342 12.5 13.5099 13.2569L13.5699 13.5274C13.8711 14.8849 14.0217 15.5637 13.8337 15.8973C13.6649 16.197 13.3538 16.3889 13.0102 16.4053C12.6277 16.4236 12.0887 15.9844 11.0107 15.106C10.3005 14.5273 9.94542 14.2379 9.55121 14.1249C9.19097 14.0216 8.80894 14.0216 8.44869 14.1249C8.05448 14.2379 7.69938 14.5273 6.98917 15.106C5.91119 15.9844 5.37221 16.4236 4.98968 16.4053C4.64609 16.3889 4.33504 16.197 4.16617 15.8973C3.97818 15.5637 4.12878 14.8849 4.42997 13.5274L4.48998 13.2569C4.65794 12.5 4.74191 12.1215 4.6898 11.7598C4.65854 11.5428 4.59182 11.3325 4.49232 11.1372C4.32645 10.8115 4.03968 10.5506 3.46613 10.0288L3.12546 9.7189C1.89867 8.60278 1.28527 8.04472 1.36975 7.51169C1.38724 7.4013 1.42312 7.29462 1.47589 7.19608C1.73069 6.72034 2.56507 6.64562 4.23384 6.49617C5.21962 6.40788 5.71251 6.36374 6.10735 6.12576C6.2181 6.05901 6.32211 5.98168 6.41793 5.89485C6.75954 5.58528 6.94211 5.13014 7.30725 4.21986Z" fill="#FFEC3F" stroke="#FFEC3F" stroke-width="2"/>
</svg>
