<svg width="28" height="13" viewBox="0 0 28 13" fill="none" xmlns="http://www.w3.org/2000/svg">
<path fill-rule="evenodd" clip-rule="evenodd" d="M2.08003 0.000100208C2.08026 0.000336084 2.08051 0.000594847 1.03996 0.902628C-0.000604119 1.80466 -0.00030764 1.80497 1.11371e-05 1.80529L0.00266832 1.80801L0.00809714 1.81355L0.0253716 1.83104C0.039721 1.84551 0.0597196 1.86553 0.0852202 1.89073C0.136213 1.94113 0.209262 2.01232 0.303192 2.10131C0.490955 2.27922 0.762729 2.52885 1.10909 2.82626C1.80039 3.41989 2.79637 4.21042 4.02136 5.00251C6.44047 6.56673 9.90473 8.23596 13.7569 8.23596C17.6091 8.23596 21.0734 6.56673 23.4925 5.00251C24.7175 4.21042 25.7135 3.41989 26.4048 2.82626C26.7512 2.52885 27.0229 2.27922 27.2107 2.10131C27.3046 2.01232 27.3777 1.94113 27.4287 1.89073C27.4542 1.86553 27.4742 1.84551 27.4885 1.83104L27.5058 1.81355L27.5112 1.80801L27.5131 1.80606C27.5134 1.80574 27.5145 1.80466 26.4739 0.902628C25.4334 0.000594847 25.4336 0.000336084 25.4338 0.000100208L25.4254 0.00863941L25.3846 0.0492926C25.3467 0.0867828 25.2875 0.144503 25.2083 0.219567C25.0498 0.369787 24.8115 0.588911 24.5028 0.853992C23.884 1.38537 22.9899 2.09484 21.8951 2.80275C19.6746 4.23853 16.7804 5.5693 13.7569 5.5693C10.7335 5.5693 7.83927 4.23853 5.6188 2.80275C4.524 2.09484 3.62992 1.38537 3.01111 0.853992C2.70241 0.588911 2.46411 0.369787 2.30557 0.219567C2.22634 0.144503 2.16718 0.0867828 2.12925 0.0492926L2.08847 0.00863941L2.08003 0.000100208Z" fill="#3E4CA2"/>
<path fill-rule="evenodd" clip-rule="evenodd" d="M15.17 12.9026V6.90259H12.344V12.9026H15.17Z" fill="#3E4CA2"/>
<path fill-rule="evenodd" clip-rule="evenodd" d="M4.15868 10.5121L8.39768 6.51208L6.39939 4.62647L2.1604 8.62647L4.15868 10.5121Z" fill="#3E4CA2"/>
<path fill-rule="evenodd" clip-rule="evenodd" d="M23.3552 10.5121L19.1162 6.51208L21.1145 4.62647L25.3535 8.62647L23.3552 10.5121Z" fill="#3E4CA2"/>
</svg>
