<svg width="40" height="43" viewBox="0 0 40 43" fill="none" xmlns="http://www.w3.org/2000/svg">
<path d="M4.90894 12.75C4.90894 11.8072 4.90894 11.3358 5.20183 11.0429C5.49472 10.75 5.96613 10.75 6.90894 10.75H26.6939C27.2429 10.75 27.5175 10.75 27.7456 10.8782C27.9738 11.0064 28.1166 11.2409 28.4021 11.7099L33.7297 20.4599C34.0381 20.9663 34.1922 21.2195 34.1922 21.5C34.1922 21.7805 34.0381 22.0337 33.7297 22.5401L28.4021 31.2901C28.1166 31.7591 27.9738 31.9936 27.7456 32.1218C27.5175 32.25 27.2429 32.25 26.6939 32.25H6.90893C5.96613 32.25 5.49472 32.25 5.20183 31.9571C4.90894 31.6642 4.90894 31.1928 4.90894 30.25V12.75Z" stroke="#3E4CA2" stroke-width="2"/>
<ellipse cx="24.545" cy="21.5" rx="1.63634" ry="1.79167" fill="#3E4CA2" stroke="#3E4CA2" stroke-width="2"/>
</svg>
