<svg width="16" height="15" viewBox="0 0 16 15" fill="none" xmlns="http://www.w3.org/2000/svg">
<path fill-rule="evenodd" clip-rule="evenodd" d="M8.30289 13.0678H10.3708C11.5697 13.0678 12.6148 12.2905 12.9056 11.1824L13.9646 7.14688C14.1707 6.36139 13.5471 5.60048 12.6972 5.60048H9.47139L10.325 4.20638C10.9601 3.16927 10.1748 1.86682 8.91448 1.86682H8.165L5.63826 6.07928C5.58187 6.1733 5.5522 6.27972 5.5522 6.38801V11.4902C5.5522 11.6983 5.66135 11.8926 5.84307 12.008L6.85357 12.6498C7.28277 12.9223 7.78706 13.0678 8.30289 13.0678ZM2.61279 5.60048H3.26599C3.9875 5.60048 4.57239 6.15768 4.57239 6.84503V11.201C4.57239 11.8883 3.9875 12.4455 3.26599 12.4455H2.61279C1.89129 12.4455 1.3064 11.8883 1.3064 11.201V6.84503C1.3064 6.15768 1.89129 5.60048 2.61279 5.60048Z" fill="#3E4CA2"/>
</svg>
