<svg width="31" height="32" viewBox="0 0 31 32" fill="none" xmlns="http://www.w3.org/2000/svg">
<path fill-rule="evenodd" clip-rule="evenodd" d="M16.4252 3.66757C17.8801 2.21031 19.8288 1.40395 21.8514 1.42218C23.874 1.4404 25.8088 2.28176 27.2391 3.76502C28.6694 5.24829 29.4807 7.25479 29.4982 9.35236C29.5158 11.4499 28.7383 13.4708 27.3331 14.9796L27.3174 14.9961L23.4605 18.9959C22.6784 19.8072 21.7373 20.4346 20.7009 20.8356C19.6645 21.2365 18.557 21.4016 17.4537 21.3197C16.3503 21.2377 15.2769 20.9106 14.3062 20.3606C13.3354 19.8106 12.4901 19.0505 11.8275 18.1319C11.4022 17.5423 11.5184 16.7067 12.087 16.2656C12.6556 15.8245 13.4613 15.945 13.8866 16.5346C14.3283 17.1471 14.8919 17.6538 15.539 18.0205C16.1862 18.3871 16.9018 18.6052 17.6374 18.6598C18.3729 18.7144 19.1112 18.6044 19.8022 18.3371C20.4931 18.0698 21.1205 17.6515 21.6419 17.1106L21.6421 17.1105L25.4908 13.1191C26.423 12.1141 26.9386 10.7703 26.9269 9.37553C26.9152 7.97715 26.3744 6.63948 25.4208 5.65064C24.4673 4.6618 23.1775 4.1009 21.829 4.08874C20.4836 4.07662 19.1872 4.61183 18.2179 5.57934L16.0135 7.85217C15.5099 8.37135 14.6959 8.36889 14.1953 7.84668C13.6946 7.32446 13.697 6.48025 14.2006 5.96107L16.412 3.68107L16.4252 3.66757Z" fill="#3E4CA2"/>
<path fill-rule="evenodd" clip-rule="evenodd" d="M10.1558 11.1644C11.1922 10.7635 12.2996 10.5984 13.403 10.6804C14.5063 10.7623 15.5798 11.0894 16.5505 11.6394C17.5213 12.1894 18.3666 12.9495 19.0292 13.8681C19.4545 14.4578 19.3383 15.2933 18.7697 15.7344C18.2011 16.1755 17.3954 16.055 16.9701 15.4654C16.5284 14.853 15.9648 14.3462 15.3176 13.9796C14.6705 13.6129 13.9549 13.3948 13.2193 13.3402C12.4837 13.2856 11.7454 13.3956 11.0545 13.6629C10.3636 13.9302 9.73613 14.3485 9.21477 14.8894L5.36586 18.8809C4.43368 19.8859 3.91805 21.2297 3.92974 22.6245C3.94145 24.0229 4.48231 25.3605 5.43583 26.3494C6.38934 27.3382 7.67921 27.8991 9.02763 27.9113C10.3725 27.9234 11.6683 27.3887 12.6375 26.422L14.8277 24.1506C15.3298 23.6299 16.1438 23.6299 16.6459 24.1506C17.148 24.6713 17.148 25.5155 16.6459 26.0362L14.4474 28.3162L14.4314 28.3324C12.9765 29.7897 11.0279 30.5961 9.00529 30.5778C6.98266 30.5596 5.04785 29.7183 3.61758 28.235C2.18731 26.7517 1.37602 24.7452 1.35845 22.6477C1.34087 20.5501 2.11841 18.5293 3.52361 17.0204L3.53927 17.0039L7.39619 13.0041C7.39625 13.004 7.39614 13.0041 7.39619 13.0041C8.1782 12.1929 9.11945 11.5653 10.1558 11.1644Z" fill="#3E4CA2"/>
</svg>
