<svg width="24" height="24" viewBox="0 0 24 24" fill="none" xmlns="http://www.w3.org/2000/svg">
<mask id="path-1-inside-1_30_253" fill="white">
<path d="M12 15C12.3978 15 12.7794 15.158 13.0607 15.4393C13.342 15.7206 13.5 16.1022 13.5 16.5C13.5 16.8978 13.342 17.2794 13.0607 17.5607C12.7794 17.842 12.3978 18 12 18C11.6022 18 11.2206 17.842 10.9393 17.5607C10.658 17.2794 10.5 16.8978 10.5 16.5C10.5 16.1022 10.658 15.7206 10.9393 15.4393C11.2206 15.158 11.6022 15 12 15ZM12 10.5C12.3978 10.5 12.7794 10.658 13.0607 10.9393C13.342 11.2206 13.5 11.6022 13.5 12C13.5 12.3978 13.342 12.7794 13.0607 13.0607C12.7794 13.342 12.3978 13.5 12 13.5C11.6022 13.5 11.2206 13.342 10.9393 13.0607C10.658 12.7794 10.5 12.3978 10.5 12C10.5 11.6022 10.658 11.2206 10.9393 10.9393C11.2206 10.658 11.6022 10.5 12 10.5ZM12 6C12.3978 6 12.7794 6.15804 13.0607 6.43934C13.342 6.72064 13.5 7.10218 13.5 7.5C13.5 7.89782 13.342 8.27936 13.0607 8.56066C12.7794 8.84196 12.3978 9 12 9C11.6022 9 11.2206 8.84196 10.9393 8.56066C10.658 8.27936 10.5 7.89782 10.5 7.5C10.5 7.10218 10.658 6.72064 10.9393 6.43934C11.2206 6.15804 11.6022 6 12 6Z"/>
</mask>
<path d="M12 15C12.3978 15 12.7794 15.158 13.0607 15.4393C13.342 15.7206 13.5 16.1022 13.5 16.5C13.5 16.8978 13.342 17.2794 13.0607 17.5607C12.7794 17.842 12.3978 18 12 18C11.6022 18 11.2206 17.842 10.9393 17.5607C10.658 17.2794 10.5 16.8978 10.5 16.5C10.5 16.1022 10.658 15.7206 10.9393 15.4393C11.2206 15.158 11.6022 15 12 15ZM12 10.5C12.3978 10.5 12.7794 10.658 13.0607 10.9393C13.342 11.2206 13.5 11.6022 13.5 12C13.5 12.3978 13.342 12.7794 13.0607 13.0607C12.7794 13.342 12.3978 13.5 12 13.5C11.6022 13.5 11.2206 13.342 10.9393 13.0607C10.658 12.7794 10.5 12.3978 10.5 12C10.5 11.6022 10.658 11.2206 10.9393 10.9393C11.2206 10.658 11.6022 10.5 12 10.5ZM12 6C12.3978 6 12.7794 6.15804 13.0607 6.43934C13.342 6.72064 13.5 7.10218 13.5 7.5C13.5 7.89782 13.342 8.27936 13.0607 8.56066C12.7794 8.84196 12.3978 9 12 9C11.6022 9 11.2206 8.84196 10.9393 8.56066C10.658 8.27936 10.5 7.89782 10.5 7.5C10.5 7.10218 10.658 6.72064 10.9393 6.43934C11.2206 6.15804 11.6022 6 12 6Z" fill="#505050"/>
<path d="M12 15V16V15ZM12 6V5V6ZM12 9V10V9ZM12 14C12.663 14 13.2989 14.2634 13.7678 14.7322L12.3536 16.1464C12.2598 16.0527 12.1326 16 12 16V14ZM13.7678 14.7322C14.2366 15.2011 14.5 15.837 14.5 16.5H12.5C12.5 16.3674 12.4473 16.2402 12.3536 16.1464L13.7678 14.7322ZM14.5 16.5C14.5 17.163 14.2366 17.7989 13.7678 18.2678L12.3536 16.8536C12.4473 16.7598 12.5 16.6326 12.5 16.5H14.5ZM13.7678 18.2678C13.2989 18.7366 12.663 19 12 19V17C12.1326 17 12.2598 16.9473 12.3536 16.8536L13.7678 18.2678ZM12 19C11.337 19 10.7011 18.7366 10.2322 18.2678L11.6464 16.8536C11.7402 16.9473 11.8674 17 12 17V19ZM10.2322 18.2678C9.76339 17.7989 9.5 17.163 9.5 16.5H11.5C11.5 16.6326 11.5527 16.7598 11.6464 16.8536L10.2322 18.2678ZM9.5 16.5C9.5 15.837 9.76339 15.2011 10.2322 14.7322L11.6464 16.1464C11.5527 16.2402 11.5 16.3674 11.5 16.5H9.5ZM10.2322 14.7322C10.7011 14.2634 11.337 14 12 14V16C11.8674 16 11.7402 16.0527 11.6464 16.1464L10.2322 14.7322ZM12 9.5C12.663 9.5 13.2989 9.76339 13.7678 10.2322L12.3536 11.6464C12.2598 11.5527 12.1326 11.5 12 11.5V9.5ZM13.7678 10.2322C14.2366 10.7011 14.5 11.337 14.5 12H12.5C12.5 11.8674 12.4473 11.7402 12.3536 11.6464L13.7678 10.2322ZM14.5 12C14.5 12.663 14.2366 13.2989 13.7678 13.7678L12.3536 12.3536C12.4473 12.2598 12.5 12.1326 12.5 12H14.5ZM13.7678 13.7678C13.2989 14.2366 12.663 14.5 12 14.5V12.5C12.1326 12.5 12.2598 12.4473 12.3536 12.3536L13.7678 13.7678ZM12 14.5C11.337 14.5 10.7011 14.2366 10.2322 13.7678L11.6464 12.3536C11.7402 12.4473 11.8674 12.5 12 12.5V14.5ZM10.2322 13.7678C9.76339 13.2989 9.5 12.663 9.5 12H11.5C11.5 12.1326 11.5527 12.2598 11.6464 12.3536L10.2322 13.7678ZM9.5 12C9.5 11.337 9.76339 10.7011 10.2322 10.2322L11.6464 11.6464C11.5527 11.7402 11.5 11.8674 11.5 12H9.5ZM10.2322 10.2322C10.7011 9.76339 11.337 9.5 12 9.5V11.5C11.8674 11.5 11.7402 11.5527 11.6464 11.6464L10.2322 10.2322ZM12 5C12.663 5 13.2989 5.26339 13.7678 5.73223L12.3536 7.14645C12.2598 7.05268 12.1326 7 12 7V5ZM13.7678 5.73223C14.2366 6.20107 14.5 6.83696 14.5 7.5H12.5C12.5 7.36739 12.4473 7.24022 12.3536 7.14645L13.7678 5.73223ZM14.5 7.5C14.5 8.16304 14.2366 8.79893 13.7678 9.26777L12.3536 7.85355C12.4473 7.75978 12.5 7.63261 12.5 7.5H14.5ZM13.7678 9.26777C13.2989 9.73661 12.663 10 12 10V8C12.1326 8 12.2598 7.94732 12.3536 7.85355L13.7678 9.26777ZM12 10C11.337 10 10.7011 9.73661 10.2322 9.26777L11.6464 7.85355C11.7402 7.94732 11.8674 8 12 8V10ZM10.2322 9.26777C9.76339 8.79893 9.5 8.16304 9.5 7.5H11.5C11.5 7.63261 11.5527 7.75978 11.6464 7.85355L10.2322 9.26777ZM9.5 7.5C9.5 6.83696 9.76339 6.20107 10.2322 5.73223L11.6464 7.14645C11.5527 7.24022 11.5 7.36739 11.5 7.5H9.5ZM10.2322 5.73223C10.7011 5.26339 11.337 5 12 5V7C11.8674 7 11.7402 7.05268 11.6464 7.14645L10.2322 5.73223Z" fill="#505050" mask="url(#path-1-inside-1_30_253)"/>
</svg>
