<svg width="21" height="19" viewBox="0 0 21 19" fill="none" xmlns="http://www.w3.org/2000/svg">
<path fill-rule="evenodd" clip-rule="evenodd" d="M9.09809 1.875C5.18996 1.875 2.0218 4.81313 2.0218 8.4375C2.0218 12.0619 5.18996 15 9.09809 15C13.0062 15 16.1744 12.0619 16.1744 8.4375C16.1744 4.81313 13.0062 1.875 9.09809 1.875ZM0 8.4375C0 3.7776 4.07336 0 9.09809 0C14.1228 0 18.1962 3.7776 18.1962 8.4375C18.1962 13.0974 14.1228 16.875 9.09809 16.875C4.07336 16.875 0 13.0974 0 8.4375Z" fill="#F5F5F5"/>
<path fill-rule="evenodd" clip-rule="evenodd" d="M14.0949 13.0715C14.4896 12.7053 15.1297 12.7053 15.5245 13.0715L19.9219 17.1496C20.3167 17.5157 20.3167 18.1093 19.9219 18.4754C19.5271 18.8415 18.8871 18.8415 18.4923 18.4754L14.0949 14.3973C13.7001 14.0312 13.7001 13.4376 14.0949 13.0715Z" fill="#F5F5F5"/>
</svg>
