<svg width="18" height="16" viewBox="0 0 18 16" fill="none" xmlns="http://www.w3.org/2000/svg">
<path d="M7.49359 3.46524C8.13195 1.82175 8.45113 1 9 1C9.54887 1 9.86805 1.82175 10.5064 3.46524L10.5361 3.54177C10.8968 4.47027 11.0771 4.93451 11.4446 5.21669C11.8121 5.49887 12.2945 5.54348 13.2594 5.63272L13.4338 5.64885C15.0129 5.7949 15.8025 5.86793 15.9714 6.38669C16.1404 6.90545 15.554 7.45637 14.3813 8.5582L13.9899 8.92593C13.3963 9.48369 13.0994 9.76257 12.9611 10.1281C12.9353 10.1963 12.9138 10.2661 12.8969 10.3372C12.8059 10.7183 12.8928 11.1228 13.0667 11.932L13.1208 12.1838C13.4403 13.6709 13.6 14.4144 13.3211 14.7351C13.2169 14.855 13.0814 14.9413 12.931 14.9837C12.5283 15.0971 11.9566 14.616 10.8131 13.6538C10.0623 13.022 9.68692 12.7061 9.25591 12.635C9.08638 12.6071 8.91362 12.6071 8.74409 12.635C8.31307 12.7061 7.93767 13.022 7.18685 13.6538C6.04343 14.616 5.47172 15.0971 5.06904 14.9837C4.91856 14.9413 4.78311 14.855 4.67889 14.7351C4.39998 14.4144 4.55972 13.6709 4.8792 12.1838L4.93331 11.932C5.10715 11.1228 5.19407 10.7183 5.10313 10.3372C5.08617 10.2661 5.06472 10.1963 5.03891 10.1281C4.90056 9.76257 4.60374 9.48369 4.01009 8.92593L3.6187 8.5582C2.44599 7.45637 1.85964 6.90545 2.02858 6.38669C2.19753 5.86793 2.98708 5.7949 4.56618 5.64885L4.74062 5.63272C5.70547 5.54348 6.18789 5.49887 6.5554 5.21669C6.9229 4.93451 7.10323 4.47027 7.46387 3.54177L7.49359 3.46524Z" stroke="#FFEC3F" stroke-width="2"/>
</svg>
