<svg width="28" height="28" viewBox="0 0 28 28" fill="none" xmlns="http://www.w3.org/2000/svg">
<rect width="28" height="28" rx="8" fill="white"/>
<path fill-rule="evenodd" clip-rule="evenodd" d="M9 11H11V4H13V11C13 13.12 11.34 14.84 9.25 14.97V24H6.75V14.97C4.66 14.84 3 13.12 3 11V4H5V11H7V4H9V11ZM15 14C15 8.47715 19.4772 4 25 4V6C20.5817 6 17 9.58172 17 14C17 18.4183 20.5817 22 25 22V24C19.4772 24 15 19.5228 15 14ZM19 14C19 10.6863 21.6863 8 25 8V10C22.7909 10 21 11.7909 21 14C21 16.2091 22.7909 18 25 18V20C21.6863 20 19 17.3137 19 14Z" fill="#966353"/>
</svg>
