<svg width="28" height="28" viewBox="0 0 28 28" fill="none" xmlns="http://www.w3.org/2000/svg">
<rect width="28" height="28" rx="8" fill="#966353"/>
<path fill-rule="evenodd" clip-rule="evenodd" d="M10 11H12V4H14V11C14 13.12 12.34 14.84 10.25 14.97V24H7.75V14.97C5.66 14.84 4 13.12 4 11V4H6V11H8V4H10V11ZM16 14C16 8.47715 20.4772 4 26 4V6C21.5817 6 18 9.58172 18 14C18 18.4183 21.5817 22 26 22V24C20.4772 24 16 19.5228 16 14ZM20 14C20 10.6863 22.6863 8 26 8V10C23.7909 10 22 11.7909 22 14C22 16.2091 23.7909 18 26 18V20C22.6863 20 20 17.3137 20 14Z" fill="white"/>
</svg>
