<svg width="28" height="28" viewBox="0 0 28 28" fill="none" xmlns="http://www.w3.org/2000/svg">
<rect width="28" height="28" rx="8" fill="white"/>
<path fill-rule="evenodd" clip-rule="evenodd" d="M6 14C6 9.58172 9.58172 6 14 6C18.4183 6 22 9.58172 22 14C22 18.4183 18.4183 22 14 22C9.58172 22 6 18.4183 6 14ZM14 4C8.47715 4 4 8.47715 4 14C4 19.5228 8.47715 24 14 24C19.5228 24 24 19.5228 24 14C24 8.47715 19.5228 4 14 4ZM11 10C12.1046 10 13 10.8954 13 12H9C9 10.8954 9.89543 10 11 10ZM14 18C12.9596 18 12.0429 18.5296 11.5048 19.3339C10.0077 18.47 9 16.8527 9 15H19C19 16.8527 17.9923 18.47 16.4952 19.3339C15.9571 18.5296 15.0404 18 14 18ZM19 12C19 10.8954 18.1046 10 17 10C15.8954 10 15 10.8954 15 12H19Z" fill="#516CF6"/>
</svg>
