<svg width="28" height="28" viewBox="0 0 28 28" fill="none" xmlns="http://www.w3.org/2000/svg">
<rect width="28" height="28" rx="8" fill="#DC6363"/>
<path fill-rule="evenodd" clip-rule="evenodd" d="M17 8C17 9.65685 15.6569 11 14 11C12.3431 11 11 9.65685 11 8C11 6.34315 12.3431 5 14 5C15.6569 5 17 6.34315 17 8ZM21 19V18C21 14.134 17.866 11 14 11C10.134 11 7 14.134 7 18V19C7 21.2091 8.79086 23 11 23V21C11 19.3431 12.3431 18 14 18C14.8885 18 15.6868 18.3863 16.2361 19H16C14.8954 19 14 19.8954 14 21C14 22.1046 14.8954 23 16 23H17C19.0077 23 20.67 21.5208 20.9564 19.5928L21 19.5714V19ZM14 18C15.1046 18 16 17.1046 16 16C16 14.8954 15.1046 14 14 14C12.8954 14 12 14.8954 12 16C12 17.1046 12.8954 18 14 18Z" fill="white"/>
</svg>
