<svg width="28" height="28" viewBox="0 0 28 28" fill="none" xmlns="http://www.w3.org/2000/svg">
<rect width="28" height="28" rx="8" fill="white"/>
<path fill-rule="evenodd" clip-rule="evenodd" d="M14.5 7.5C14.5 8.60457 13.6046 9.5 12.5 9.5C11.3954 9.5 10.5 8.60457 10.5 7.5C10.5 6.39543 11.3954 5.5 12.5 5.5C13.6046 5.5 14.5 6.39543 14.5 7.5ZM10.6963 13.2242C8.26394 12.4585 6.5 10.1852 6.5 7.5H8.5C8.5 9.70914 10.2909 11.5 12.5 11.5C14.7091 11.5 16.5 9.70914 16.5 7.5H18.5C18.5 9.67098 17.347 11.5727 15.6199 12.6261L17.1099 16.5H23.5V18.5H16.4231H14.697L17.0692 25.1647L15.185 25.8353L12.3375 17.8353L10.6963 13.2242Z" fill="#7DCD97"/>
</svg>
