<svg width="28" height="28" viewBox="0 0 28 28" fill="none" xmlns="http://www.w3.org/2000/svg">
<rect width="28" height="28" rx="8" fill="#EDD05C"/>
<path fill-rule="evenodd" clip-rule="evenodd" d="M4 6C4 4.89543 4.89543 4 6 4H22C23.1046 4 24 4.89543 24 6V17C24 17.7449 23.5928 18.3947 22.9888 18.7389C22.8565 17.2043 21.5689 16 20 16C18.3431 16 17 17.3431 17 19H6C4.89543 19 4 18.1046 4 17V6ZM22 13C22 14.1046 21.1046 15 20 15C18.8954 15 18 14.1046 18 13C18 11.8954 18.8954 11 20 11C21.1046 11 22 11.8954 22 13ZM6 12H8V15H6V12ZM12 10H10V15H12V10ZM14 6H16V15H14V6ZM26 23V21H2V23H26Z" fill="white"/>
</svg>
