<svg width="28" height="28" viewBox="0 0 28 28" fill="none" xmlns="http://www.w3.org/2000/svg">
<rect width="28" height="28" rx="8" fill="#3E4CA2"/>
<path fill-rule="evenodd" clip-rule="evenodd" d="M12.8703 4.63703L6.54779 8.08703C6.03029 8.37203 6.03029 9.12203 6.54779 9.40703L12.8703 12.857C13.3203 13.1045 13.8603 13.1045 14.3103 12.857L20.3403 9.56453V13.997C20.3403 14.4095 20.6778 14.747 21.0903 14.747C21.5028 14.747 21.8403 14.4095 21.8403 13.997V9.18953C21.8403 8.91203 21.6903 8.66453 21.4503 8.52953L14.3103 4.63703C13.8603 4.39703 13.3203 4.39703 12.8703 4.63703ZM8.34021 11.8821V13.9896C8.34021 14.5371 8.64021 15.0471 9.12021 15.3096L12.8702 17.3571C13.3202 17.6046 13.8602 17.6046 14.3102 17.3571L18.0602 15.3096C18.5402 15.0471 18.8402 14.5371 18.8402 13.9896V11.8821L14.3102 14.3571C13.8602 14.6046 13.3202 14.6046 12.8702 14.3571L8.34021 11.8821ZM8.99995 23.9999C10.3062 23.9999 11.4174 23.1651 11.8292 21.9999H16.1707C16.5825 23.1651 17.6937 23.9999 18.9999 23.9999C20.3062 23.9999 21.4174 23.1651 21.8292 21.9999H19.9999C19.7238 21.9999 19.4999 21.776 19.4999 21.4999V20.4999C19.4999 20.2237 19.7238 19.9999 19.9999 19.9999H21.8292C21.4174 18.8347 20.3062 17.9999 18.9999 17.9999C17.6937 17.9999 16.5825 18.8347 16.1707 19.9999H11.8292C11.4174 18.8347 10.3062 17.9999 8.99995 17.9999C7.69373 17.9999 6.58249 18.8347 6.17065 19.9999H7.99995C8.27609 19.9999 8.49995 20.2237 8.49995 20.4999V21.4999C8.49995 21.776 8.27609 21.9999 7.99995 21.9999H6.17065C6.58249 23.1651 7.69373 23.9999 8.99995 23.9999Z" fill="white"/>
</svg>
