<svg width="28" height="28" viewBox="0 0 28 28" fill="none" xmlns="http://www.w3.org/2000/svg">
<rect width="28" height="28" rx="8" fill="white"/>
<path fill-rule="evenodd" clip-rule="evenodd" d="M12.0001 4C9.58112 4 7.56337 5.71776 7.1001 8H11.2888C11.0414 8.17045 10.806 8.36571 10.5859 8.58576C8.87544 10.2962 8.66331 12.9376 9.94952 14.879L14.7454 10.0831C14.6876 10.2184 14.6295 10.3586 14.5715 10.5036C13.8519 12.3026 13.1394 14.849 13.0181 18.0432C10.0024 18.3099 7.33632 19.7936 5.51416 22H22.4855C20.671 19.8029 18.0196 18.3224 15.0195 18.0466C15.139 15.1453 15.7872 12.8495 16.4285 11.2464C16.7836 10.3585 17.1366 9.68339 17.396 9.23651C17.3975 9.23398 17.399 9.23146 17.4004 9.22895L23.0505 14.879C24.3367 12.9376 24.1246 10.2962 22.4141 8.58576C22.194 8.36571 21.9586 8.17045 21.7112 8H25.8999C25.4366 5.71776 23.4189 4 20.9999 4C19.0209 4 17.3104 5.14978 16.5 6.81778C15.6896 5.14978 13.9791 4 12.0001 4Z" fill="#82DD4A"/>
</svg>
